# xmcd
#
# Track frame offsets:
#	150
#	26201
#	48274
#	79772
#	99319
#	126318
#	152053
#	179436
#	198450
#	205208
#	236895
#	261452
#	285456
#	313534
#	337907
#
# Disc length: 4764 seconds
#
# Revision: 0
# Processed by: cddbd v1.5.2PL0 Copyright (c) Steve Scherf et al.
# Submitted via: EasyCDDAExtractor 10.2.0.1
#
DISCID=d7129a0f
DTITLE=Various Artist - Ben In The Mix 106
DYEAR=2009
DGENRE=House
TTITLE0=Chris Lake ft. Nastala - If You Knew ///original mix
TTITLE1=Aaron Perez - Sinister Subconscious ///hott 22 remix
TTITLE2=Ian Carey - Redlight ///original mix
TTITLE3=Bob Sinclar ft. Master Gee and Wonder Mike - Lala Song ///guy schreiner 
TTITLE3=remix
TTITLE4=C Mos - 2 Million Ways ///axwell remix
TTITLE5=Ben Macklin ft. Tiger Lily - Feel Together ///vocal mix
TTITLE6=Ian Carey ft. Michelle Shellers - Keep On Rising ///noll and liwer mix
TTITLE7=Dillon and Dickins - Steers and Queers ///club mix
TTITLE8=Wolfgang Gartner - Wolfgang's 5th Symphony ///original mix 
TTITLE9=Denis The Menace and Big World Present Philip Van Het Veld - Show Me A R
TTITLE9=eason ///terrace mix
TTITLE10=Benassi Vs Bowie - DJ ///original vocal mix
TTITLE11=Moby - Bodyrock ///olav basoski's da hot funk da fresh funk remix
TTITLE12=Hook N Sling - The Best Thing ///tonite only remix
TTITLE13=The Star Alliance ft. Sheila Ferguson - He's A Runner ///fonzerelli r
TTITLE13=emix
TTITLE14=Royal Gigolos - Self Control ///extended mix
EXTD=
EXTT0=
EXTT1=
EXTT2=
EXTT3=
EXTT4=
EXTT5=
EXTT6=
EXTT7=
EXTT8=
EXTT9=
EXTT10=
EXTT11=
EXTT12=
EXTT13=
EXTT14=
PLAYORDER=
